<mxfile host="app.diagrams.net" agent="Mozilla/5.0 (Windows NT 10.0; Win64; x64; rv:128.0) Gecko/20100101 Firefox/128.0" version="25.0.3">
  <diagram id="HrwSt24TEfb3lT84zdlZ" name="Step + Mosfet">
    <mxGraphModel dx="1803" dy="945" grid="1" gridSize="10" guides="1" tooltips="1" connect="1" arrows="1" fold="1" page="1" pageScale="1" pageWidth="827" pageHeight="1169" math="0" shadow="0">
      <root>
        <mxCell id="0" />
        <mxCell id="1" parent="0" />
        <mxCell id="j6RYW2Encp40kcF4Ty5e-2" value="Mosfet" style="rounded=0;whiteSpace=wrap;html=1;container=1;verticalAlign=top;direction=east;" parent="1" vertex="1">
          <mxGeometry x="381.5" y="180" width="130" height="220.00176470588235" as="geometry" />
        </mxCell>
        <mxCell id="j6RYW2Encp40kcF4Ty5e-3" value="V+ in" style="rounded=0;whiteSpace=wrap;html=1;fontSize=9;fillColor=#f8cecc;strokeColor=#b85450;" parent="j6RYW2Encp40kcF4Ty5e-2" vertex="1">
          <mxGeometry x="109.99832465277791" y="49.99823529411765" width="20" height="20" as="geometry" />
        </mxCell>
        <mxCell id="j6RYW2Encp40kcF4Ty5e-4" style="edgeStyle=orthogonalEdgeStyle;rounded=0;orthogonalLoop=1;jettySize=auto;html=1;fillColor=#f5f5f5;strokeColor=#666666;endArrow=none;endFill=0;" parent="j6RYW2Encp40kcF4Ty5e-2" source="j6RYW2Encp40kcF4Ty5e-5" target="j6RYW2Encp40kcF4Ty5e-8" edge="1">
          <mxGeometry relative="1" as="geometry" />
        </mxCell>
        <mxCell id="j6RYW2Encp40kcF4Ty5e-5" value="V- in" style="rounded=0;whiteSpace=wrap;html=1;fontSize=9;fillColor=#f5f5f5;fontColor=#333333;strokeColor=#666666;" parent="j6RYW2Encp40kcF4Ty5e-2" vertex="1">
          <mxGeometry x="109.99832465277791" y="70.00117647058823" width="20" height="20" as="geometry" />
        </mxCell>
        <mxCell id="j6RYW2Encp40kcF4Ty5e-6" value="&lt;div&gt;V+&lt;/div&gt;&lt;div&gt;out&lt;/div&gt;" style="rounded=0;whiteSpace=wrap;html=1;fontSize=9;fillColor=#f8cecc;strokeColor=#b85450;" parent="j6RYW2Encp40kcF4Ty5e-2" vertex="1">
          <mxGeometry x="-0.0016753472220898402" y="49.99823529411765" width="20" height="20" as="geometry" />
        </mxCell>
        <mxCell id="j6RYW2Encp40kcF4Ty5e-7" value="&lt;div&gt;V-out&lt;/div&gt;" style="rounded=0;whiteSpace=wrap;html=1;fontSize=9;fillColor=#f5f5f5;fontColor=#333333;strokeColor=#666666;" parent="j6RYW2Encp40kcF4Ty5e-2" vertex="1">
          <mxGeometry x="-0.0016753472220898402" y="70.00117647058823" width="20" height="20" as="geometry" />
        </mxCell>
        <mxCell id="j6RYW2Encp40kcF4Ty5e-8" value="Sg" style="rounded=0;whiteSpace=wrap;html=1;fontSize=9;fillColor=#f5f5f5;strokeColor=#666666;fontColor=#333333;" parent="j6RYW2Encp40kcF4Ty5e-2" vertex="1">
          <mxGeometry x="80.00019965277784" y="200.00176470588235" width="20" height="20" as="geometry" />
        </mxCell>
        <mxCell id="j6RYW2Encp40kcF4Ty5e-9" value="S In" style="rounded=0;whiteSpace=wrap;html=1;fontSize=9;fillColor=#dae8fc;strokeColor=#6c8ebf;" parent="j6RYW2Encp40kcF4Ty5e-2" vertex="1">
          <mxGeometry x="40.00019965277784" y="200.00176470588235" width="20" height="20" as="geometry" />
        </mxCell>
        <mxCell id="j6RYW2Encp40kcF4Ty5e-69" value="- V out" style="edgeStyle=orthogonalEdgeStyle;rounded=0;orthogonalLoop=1;jettySize=auto;html=1;fillColor=#f5f5f5;strokeColor=#666666;flowAnimation=0;jumpStyle=arc;labelBackgroundColor=none;" parent="j6RYW2Encp40kcF4Ty5e-2" source="j6RYW2Encp40kcF4Ty5e-5" edge="1">
          <mxGeometry x="0.4208" y="-10" relative="1" as="geometry">
            <mxPoint x="140" y="70" as="sourcePoint" />
            <Array as="points">
              <mxPoint x="189" y="80" />
              <mxPoint x="189" y="80" />
            </Array>
            <mxPoint x="240.5" y="80" as="targetPoint" />
            <mxPoint as="offset" />
          </mxGeometry>
        </mxCell>
        <mxCell id="j6RYW2Encp40kcF4Ty5e-11" value="NODEMCU" style="rounded=0;whiteSpace=wrap;html=1;container=1;labelPosition=center;verticalLabelPosition=middle;align=center;verticalAlign=top;horizontal=1;" parent="1" vertex="1">
          <mxGeometry x="350" y="450" width="193" height="390" as="geometry" />
        </mxCell>
        <mxCell id="j6RYW2Encp40kcF4Ty5e-12" value="USB" style="rounded=0;whiteSpace=wrap;html=1;" parent="j6RYW2Encp40kcF4Ty5e-11" vertex="1">
          <mxGeometry x="67.8515625" y="350" width="60.3125" height="40" as="geometry" />
        </mxCell>
        <mxCell id="j6RYW2Encp40kcF4Ty5e-13" value="D0" style="rounded=0;whiteSpace=wrap;html=1;fontSize=9;" parent="j6RYW2Encp40kcF4Ty5e-11" vertex="1">
          <mxGeometry x="173.00019965277784" y="45.89470588235294" width="20" height="20" as="geometry" />
        </mxCell>
        <mxCell id="j6RYW2Encp40kcF4Ty5e-14" value="D1" style="rounded=0;whiteSpace=wrap;html=1;fontSize=9;fillColor=#dae8fc;strokeColor=#6c8ebf;" parent="j6RYW2Encp40kcF4Ty5e-11" vertex="1">
          <mxGeometry x="173.00019965277784" y="65.89176470588235" width="20" height="20" as="geometry" />
        </mxCell>
        <mxCell id="j6RYW2Encp40kcF4Ty5e-15" value="D2" style="rounded=0;whiteSpace=wrap;html=1;fontSize=9;fillColor=#ffe6cc;strokeColor=#d79b00;" parent="j6RYW2Encp40kcF4Ty5e-11" vertex="1">
          <mxGeometry x="173.00019965277784" y="85.88882352941177" width="20" height="20" as="geometry" />
        </mxCell>
        <mxCell id="j6RYW2Encp40kcF4Ty5e-16" value="D3" style="rounded=0;whiteSpace=wrap;html=1;fontSize=9;" parent="j6RYW2Encp40kcF4Ty5e-11" vertex="1">
          <mxGeometry x="173.00019965277784" y="104.12588235294122" width="20" height="20" as="geometry" />
        </mxCell>
        <mxCell id="j6RYW2Encp40kcF4Ty5e-17" value="D4" style="rounded=0;whiteSpace=wrap;html=1;fontSize=9;" parent="j6RYW2Encp40kcF4Ty5e-11" vertex="1">
          <mxGeometry x="173.00019965277784" y="124.12294117647063" width="20" height="20" as="geometry" />
        </mxCell>
        <mxCell id="j6RYW2Encp40kcF4Ty5e-18" value="3V3" style="rounded=0;whiteSpace=wrap;html=1;fontSize=9;fillColor=#ffcccc;strokeColor=#36393d;" parent="j6RYW2Encp40kcF4Ty5e-11" vertex="1">
          <mxGeometry x="173.00019965277784" y="144.12000000000006" width="20" height="20" as="geometry" />
        </mxCell>
        <mxCell id="j6RYW2Encp40kcF4Ty5e-19" value="GND" style="rounded=0;whiteSpace=wrap;html=1;fontSize=9;fillColor=#f5f5f5;fontColor=#333333;strokeColor=#666666;" parent="j6RYW2Encp40kcF4Ty5e-11" vertex="1">
          <mxGeometry x="173.00019965277784" y="164.11705882352945" width="20" height="20" as="geometry" />
        </mxCell>
        <mxCell id="j6RYW2Encp40kcF4Ty5e-20" value="D5" style="rounded=0;whiteSpace=wrap;html=1;fontSize=9;" parent="j6RYW2Encp40kcF4Ty5e-11" vertex="1">
          <mxGeometry x="173.00019965277784" y="184.11411764705883" width="20" height="20" as="geometry" />
        </mxCell>
        <mxCell id="j6RYW2Encp40kcF4Ty5e-21" value="D6" style="rounded=0;whiteSpace=wrap;html=1;fontSize=9;" parent="j6RYW2Encp40kcF4Ty5e-11" vertex="1">
          <mxGeometry x="173.00019965277784" y="204.11117647058825" width="20" height="20" as="geometry" />
        </mxCell>
        <mxCell id="j6RYW2Encp40kcF4Ty5e-22" value="D7" style="rounded=0;whiteSpace=wrap;html=1;fontSize=9;" parent="j6RYW2Encp40kcF4Ty5e-11" vertex="1">
          <mxGeometry x="173.00019965277784" y="224.10823529411766" width="20" height="20" as="geometry" />
        </mxCell>
        <mxCell id="j6RYW2Encp40kcF4Ty5e-23" value="D8" style="rounded=0;whiteSpace=wrap;html=1;fontSize=9;" parent="j6RYW2Encp40kcF4Ty5e-11" vertex="1">
          <mxGeometry x="173.00019965277784" y="244.11000000000007" width="20" height="20" as="geometry" />
        </mxCell>
        <mxCell id="j6RYW2Encp40kcF4Ty5e-24" value="RX" style="rounded=0;whiteSpace=wrap;html=1;fontSize=9;" parent="j6RYW2Encp40kcF4Ty5e-11" vertex="1">
          <mxGeometry x="173.00019965277784" y="264.1070588235294" width="20" height="20" as="geometry" />
        </mxCell>
        <mxCell id="j6RYW2Encp40kcF4Ty5e-25" value="TX" style="rounded=0;whiteSpace=wrap;html=1;fontSize=9;" parent="j6RYW2Encp40kcF4Ty5e-11" vertex="1">
          <mxGeometry x="173.00019965277784" y="284.10411764705884" width="20" height="20" as="geometry" />
        </mxCell>
        <mxCell id="j6RYW2Encp40kcF4Ty5e-26" value="GND" style="rounded=0;whiteSpace=wrap;html=1;fontSize=9;fillColor=#f5f5f5;fontColor=#333333;strokeColor=#666666;" parent="j6RYW2Encp40kcF4Ty5e-11" vertex="1">
          <mxGeometry x="173.00019965277784" y="304.10117647058826" width="20" height="20" as="geometry" />
        </mxCell>
        <mxCell id="j6RYW2Encp40kcF4Ty5e-27" value="3V3" style="rounded=0;whiteSpace=wrap;html=1;fontSize=9;fillColor=#ffcccc;strokeColor=#36393d;" parent="j6RYW2Encp40kcF4Ty5e-11" vertex="1">
          <mxGeometry x="173.00019965277784" y="324.09823529411767" width="20" height="20" as="geometry" />
        </mxCell>
        <mxCell id="j6RYW2Encp40kcF4Ty5e-28" value="A0" style="rounded=0;whiteSpace=wrap;html=1;fontSize=9;fillColor=#e1d5e7;strokeColor=#9673a6;" parent="j6RYW2Encp40kcF4Ty5e-11" vertex="1">
          <mxGeometry x="-0.001675347222163559" y="45.89470588235294" width="20" height="20" as="geometry" />
        </mxCell>
        <mxCell id="j6RYW2Encp40kcF4Ty5e-29" value="RSV" style="rounded=0;whiteSpace=wrap;html=1;fontSize=9;" parent="j6RYW2Encp40kcF4Ty5e-11" vertex="1">
          <mxGeometry x="-0.001675347222163559" y="65.89176470588234" width="20" height="20" as="geometry" />
        </mxCell>
        <mxCell id="j6RYW2Encp40kcF4Ty5e-30" value="RSV" style="rounded=0;whiteSpace=wrap;html=1;fontSize=9;" parent="j6RYW2Encp40kcF4Ty5e-11" vertex="1">
          <mxGeometry x="-0.001675347222163559" y="85.88882352941175" width="20" height="20" as="geometry" />
        </mxCell>
        <mxCell id="j6RYW2Encp40kcF4Ty5e-31" value="SD3" style="rounded=0;whiteSpace=wrap;html=1;fontSize=9;" parent="j6RYW2Encp40kcF4Ty5e-11" vertex="1">
          <mxGeometry x="-0.001675347222163559" y="104.1258823529412" width="20" height="20" as="geometry" />
        </mxCell>
        <mxCell id="j6RYW2Encp40kcF4Ty5e-32" value="SD2" style="rounded=0;whiteSpace=wrap;html=1;fontSize=9;" parent="j6RYW2Encp40kcF4Ty5e-11" vertex="1">
          <mxGeometry x="-0.001675347222163559" y="124.12294117647062" width="20" height="20" as="geometry" />
        </mxCell>
        <mxCell id="j6RYW2Encp40kcF4Ty5e-33" value="SD1" style="rounded=0;whiteSpace=wrap;html=1;fontSize=9;" parent="j6RYW2Encp40kcF4Ty5e-11" vertex="1">
          <mxGeometry x="-0.001675347222163559" y="144.12000000000006" width="20" height="20" as="geometry" />
        </mxCell>
        <mxCell id="j6RYW2Encp40kcF4Ty5e-34" value="CMD" style="rounded=0;whiteSpace=wrap;html=1;fontSize=9;" parent="j6RYW2Encp40kcF4Ty5e-11" vertex="1">
          <mxGeometry x="-0.001675347222163559" y="164.11705882352945" width="20" height="20" as="geometry" />
        </mxCell>
        <mxCell id="j6RYW2Encp40kcF4Ty5e-35" value="SD0" style="rounded=0;whiteSpace=wrap;html=1;fontSize=9;" parent="j6RYW2Encp40kcF4Ty5e-11" vertex="1">
          <mxGeometry x="-0.001675347222163559" y="184.11411764705883" width="20" height="20" as="geometry" />
        </mxCell>
        <mxCell id="j6RYW2Encp40kcF4Ty5e-36" value="CLK" style="rounded=0;whiteSpace=wrap;html=1;fontSize=9;" parent="j6RYW2Encp40kcF4Ty5e-11" vertex="1">
          <mxGeometry x="-0.001675347222163559" y="204.11117647058825" width="20" height="20" as="geometry" />
        </mxCell>
        <mxCell id="j6RYW2Encp40kcF4Ty5e-37" value="GND" style="rounded=0;whiteSpace=wrap;html=1;fontSize=9;fillColor=#f5f5f5;fontColor=#333333;strokeColor=#666666;" parent="j6RYW2Encp40kcF4Ty5e-11" vertex="1">
          <mxGeometry x="-0.001675347222163559" y="224.10823529411766" width="20" height="20" as="geometry" />
        </mxCell>
        <mxCell id="j6RYW2Encp40kcF4Ty5e-38" value="3V3" style="rounded=0;whiteSpace=wrap;html=1;fontSize=9;fillColor=#ffcccc;strokeColor=#36393d;" parent="j6RYW2Encp40kcF4Ty5e-11" vertex="1">
          <mxGeometry x="-0.001675347222163559" y="244.11000000000007" width="20" height="20" as="geometry" />
        </mxCell>
        <mxCell id="j6RYW2Encp40kcF4Ty5e-39" value="EN" style="rounded=0;whiteSpace=wrap;html=1;fontSize=9;" parent="j6RYW2Encp40kcF4Ty5e-11" vertex="1">
          <mxGeometry x="-0.001675347222163559" y="264.1070588235294" width="20" height="20" as="geometry" />
        </mxCell>
        <mxCell id="j6RYW2Encp40kcF4Ty5e-40" value="RST" style="rounded=0;whiteSpace=wrap;html=1;fontSize=9;" parent="j6RYW2Encp40kcF4Ty5e-11" vertex="1">
          <mxGeometry x="-0.001675347222163559" y="284.10411764705884" width="20" height="20" as="geometry" />
        </mxCell>
        <mxCell id="j6RYW2Encp40kcF4Ty5e-41" value="GND" style="rounded=0;whiteSpace=wrap;html=1;fontSize=9;fillColor=#f5f5f5;fontColor=#333333;strokeColor=#666666;" parent="j6RYW2Encp40kcF4Ty5e-11" vertex="1">
          <mxGeometry x="-0.001675347222163559" y="304.10117647058826" width="20" height="20" as="geometry" />
        </mxCell>
        <mxCell id="j6RYW2Encp40kcF4Ty5e-42" value="Vin" style="rounded=0;whiteSpace=wrap;html=1;fontSize=9;fillColor=#f8cecc;strokeColor=#b85450;" parent="j6RYW2Encp40kcF4Ty5e-11" vertex="1">
          <mxGeometry x="-0.001675347222163559" y="324.09823529411767" width="20" height="20" as="geometry" />
        </mxCell>
        <mxCell id="j6RYW2Encp40kcF4Ty5e-43" value="FLASH" style="rounded=0;whiteSpace=wrap;html=1;verticalAlign=top;horizontal=1;labelPosition=center;verticalLabelPosition=top;align=center;" parent="j6RYW2Encp40kcF4Ty5e-11" vertex="1">
          <mxGeometry x="135.70144965277785" y="344.09823529411767" width="20" height="20" as="geometry" />
        </mxCell>
        <mxCell id="j6RYW2Encp40kcF4Ty5e-44" value="RST" style="rounded=0;whiteSpace=wrap;html=1;verticalAlign=top;horizontal=1;labelPosition=center;verticalLabelPosition=top;align=center;" parent="j6RYW2Encp40kcF4Ty5e-11" vertex="1">
          <mxGeometry x="44.23269965277783" y="344.09823529411767" width="20" height="20" as="geometry" />
        </mxCell>
        <mxCell id="j6RYW2Encp40kcF4Ty5e-45" value="Termistor" style="ellipse;whiteSpace=wrap;html=1;aspect=fixed;fillColor=#76608a;strokeColor=#432D57;fontColor=#ffffff;" parent="1" vertex="1">
          <mxGeometry x="110" y="664.11" width="80" height="80" as="geometry" />
        </mxCell>
        <mxCell id="j6RYW2Encp40kcF4Ty5e-46" value="Termistor" style="edgeStyle=orthogonalEdgeStyle;rounded=0;orthogonalLoop=1;jettySize=auto;html=1;fillColor=#e1d5e7;strokeColor=#9673a6;flowAnimation=0;jumpStyle=arc;labelBackgroundColor=none;" parent="1" source="j6RYW2Encp40kcF4Ty5e-45" target="j6RYW2Encp40kcF4Ty5e-28" edge="1">
          <mxGeometry x="0.6649" y="6" relative="1" as="geometry">
            <mxPoint x="200" y="500" as="sourcePoint" />
            <Array as="points">
              <mxPoint x="150" y="506" />
            </Array>
            <mxPoint as="offset" />
          </mxGeometry>
        </mxCell>
        <mxCell id="j6RYW2Encp40kcF4Ty5e-47" style="edgeStyle=orthogonalEdgeStyle;rounded=0;orthogonalLoop=1;jettySize=auto;html=1;fillColor=#76608a;strokeColor=#432D57;flowAnimation=0;jumpStyle=arc;" parent="1" source="j6RYW2Encp40kcF4Ty5e-38" target="j6RYW2Encp40kcF4Ty5e-45" edge="1">
          <mxGeometry relative="1" as="geometry" />
        </mxCell>
        <mxCell id="j6RYW2Encp40kcF4Ty5e-48" style="edgeStyle=orthogonalEdgeStyle;rounded=0;orthogonalLoop=1;jettySize=auto;html=1;fillColor=#e1d5e7;strokeColor=#9673a6;flowAnimation=0;jumpStyle=arc;" parent="1" source="j6RYW2Encp40kcF4Ty5e-49" target="j6RYW2Encp40kcF4Ty5e-37" edge="1">
          <mxGeometry relative="1" as="geometry">
            <Array as="points">
              <mxPoint x="265" y="684" />
            </Array>
          </mxGeometry>
        </mxCell>
        <mxCell id="j6RYW2Encp40kcF4Ty5e-49" value="10K Ω" style="pointerEvents=1;verticalLabelPosition=bottom;shadow=0;dashed=0;align=center;html=1;verticalAlign=top;shape=mxgraph.electrical.resistors.resistor_2;fillColor=#e1d5e7;strokeColor=#9673a6;" parent="1" vertex="1">
          <mxGeometry x="190" y="630" width="70" height="10" as="geometry" />
        </mxCell>
        <mxCell id="j6RYW2Encp40kcF4Ty5e-50" style="edgeStyle=orthogonalEdgeStyle;rounded=0;orthogonalLoop=1;jettySize=auto;html=1;entryX=0;entryY=0.5;entryDx=0;entryDy=0;entryPerimeter=0;fillColor=#e1d5e7;strokeColor=#9673a6;flowAnimation=0;jumpStyle=arc;" parent="1" source="j6RYW2Encp40kcF4Ty5e-45" target="j6RYW2Encp40kcF4Ty5e-49" edge="1">
          <mxGeometry relative="1" as="geometry" />
        </mxCell>
        <mxCell id="j6RYW2Encp40kcF4Ty5e-54" value="PWM" style="edgeStyle=orthogonalEdgeStyle;rounded=0;orthogonalLoop=1;jettySize=auto;html=1;fillColor=#dae8fc;strokeColor=#6c8ebf;flowAnimation=1;jumpStyle=arc;labelBackgroundColor=none;" parent="1" source="j6RYW2Encp40kcF4Ty5e-14" target="j6RYW2Encp40kcF4Ty5e-9" edge="1">
          <mxGeometry x="-0.7743" y="-20" relative="1" as="geometry">
            <mxPoint x="767" y="242.48275862068976" as="targetPoint" />
            <Array as="points">
              <mxPoint x="570" y="526" />
              <mxPoint x="570" y="420" />
            </Array>
            <mxPoint as="offset" />
          </mxGeometry>
        </mxCell>
        <mxCell id="j6RYW2Encp40kcF4Ty5e-55" value="+5v" style="edgeStyle=orthogonalEdgeStyle;rounded=0;orthogonalLoop=1;jettySize=auto;html=1;fillColor=#f8cecc;strokeColor=#b85450;flowAnimation=0;jumpStyle=arc;labelBackgroundColor=none;" parent="1" source="j6RYW2Encp40kcF4Ty5e-62" target="j6RYW2Encp40kcF4Ty5e-42" edge="1">
          <mxGeometry x="-0.9658" y="-10" relative="1" as="geometry">
            <mxPoint x="190.00000000000023" y="824.9827586206898" as="sourcePoint" />
            <Array as="points">
              <mxPoint x="70" y="120" />
              <mxPoint x="70" y="785" />
            </Array>
            <mxPoint as="offset" />
          </mxGeometry>
        </mxCell>
        <mxCell id="j6RYW2Encp40kcF4Ty5e-58" value="StepDown 5V" style="rounded=0;whiteSpace=wrap;html=1;container=1;verticalAlign=top;direction=east;" parent="1" vertex="1">
          <mxGeometry x="381.5" y="70" width="130" height="90" as="geometry" />
        </mxCell>
        <mxCell id="j6RYW2Encp40kcF4Ty5e-59" value="V+ in" style="rounded=0;whiteSpace=wrap;html=1;fontSize=9;fillColor=#f8cecc;strokeColor=#b85450;" parent="j6RYW2Encp40kcF4Ty5e-58" vertex="1">
          <mxGeometry x="109.99832465277791" y="39.99823529411765" width="20" height="20" as="geometry" />
        </mxCell>
        <mxCell id="j6RYW2Encp40kcF4Ty5e-61" value="V- in" style="rounded=0;whiteSpace=wrap;html=1;fontSize=9;fillColor=#f5f5f5;fontColor=#333333;strokeColor=#666666;" parent="j6RYW2Encp40kcF4Ty5e-58" vertex="1">
          <mxGeometry x="109.99832465277791" y="60.001176470588234" width="20" height="20" as="geometry" />
        </mxCell>
        <mxCell id="j6RYW2Encp40kcF4Ty5e-62" value="&lt;div&gt;V+&lt;/div&gt;&lt;div&gt;out&lt;/div&gt;" style="rounded=0;whiteSpace=wrap;html=1;fontSize=9;fillColor=#f8cecc;strokeColor=#b85450;" parent="j6RYW2Encp40kcF4Ty5e-58" vertex="1">
          <mxGeometry x="-0.0016753472220898402" y="39.99823529411765" width="20" height="20" as="geometry" />
        </mxCell>
        <mxCell id="j6RYW2Encp40kcF4Ty5e-63" value="&lt;div&gt;V-out&lt;/div&gt;" style="rounded=0;whiteSpace=wrap;html=1;fontSize=9;fillColor=#f5f5f5;fontColor=#333333;strokeColor=#666666;" parent="j6RYW2Encp40kcF4Ty5e-58" vertex="1">
          <mxGeometry x="-0.0016753472220898402" y="60.001176470588234" width="20" height="20" as="geometry" />
        </mxCell>
        <mxCell id="j6RYW2Encp40kcF4Ty5e-67" value="Fan + V in" style="edgeStyle=orthogonalEdgeStyle;rounded=0;orthogonalLoop=1;jettySize=auto;html=1;fillColor=#f8cecc;strokeColor=#b85450;flowAnimation=0;jumpStyle=arc;labelBackgroundColor=none;" parent="1" target="j6RYW2Encp40kcF4Ty5e-3" edge="1">
          <mxGeometry x="-0.447" y="-10" relative="1" as="geometry">
            <mxPoint x="620" y="250" as="sourcePoint" />
            <Array as="points">
              <mxPoint x="620" y="250" />
              <mxPoint x="620" y="250" />
            </Array>
            <mxPoint x="820" y="330" as="targetPoint" />
            <mxPoint as="offset" />
          </mxGeometry>
        </mxCell>
        <mxCell id="j6RYW2Encp40kcF4Ty5e-68" style="edgeStyle=orthogonalEdgeStyle;rounded=0;orthogonalLoop=1;jettySize=auto;html=1;strokeColor=#b85450;align=center;verticalAlign=middle;fontFamily=Helvetica;fontSize=11;fontColor=default;labelBackgroundColor=default;jumpStyle=arc;endArrow=classic;flowAnimation=0;fillColor=#f8cecc;" parent="1" source="j6RYW2Encp40kcF4Ty5e-3" target="j6RYW2Encp40kcF4Ty5e-59" edge="1">
          <mxGeometry relative="1" as="geometry">
            <Array as="points">
              <mxPoint x="560" y="250" />
              <mxPoint x="560" y="120" />
            </Array>
          </mxGeometry>
        </mxCell>
        <mxCell id="x9_ibyh38mPB4LA863Rb-3" style="edgeStyle=orthogonalEdgeStyle;rounded=0;orthogonalLoop=1;jettySize=auto;html=1;entryX=0;entryY=0.5;entryDx=0;entryDy=0;fillColor=#f5f5f5;strokeColor=#666666;flowAnimation=1;" edge="1" parent="1" source="x9_ibyh38mPB4LA863Rb-1" target="j6RYW2Encp40kcF4Ty5e-7">
          <mxGeometry relative="1" as="geometry">
            <Array as="points">
              <mxPoint x="310" y="260" />
              <mxPoint x="310" y="260" />
            </Array>
          </mxGeometry>
        </mxCell>
        <mxCell id="x9_ibyh38mPB4LA863Rb-1" value="COOLER" style="whiteSpace=wrap;html=1;aspect=fixed;verticalLabelPosition=bottom;verticalAlign=top;shape=mxgraph.floorplan.water_cooler;" vertex="1" parent="1">
          <mxGeometry x="150" y="200" width="140" height="140" as="geometry" />
        </mxCell>
        <mxCell id="j6RYW2Encp40kcF4Ty5e-71" style="edgeStyle=orthogonalEdgeStyle;rounded=0;orthogonalLoop=1;jettySize=auto;html=1;strokeColor=#666666;align=center;verticalAlign=middle;fontFamily=Helvetica;fontSize=11;fontColor=default;labelBackgroundColor=default;jumpStyle=arc;endArrow=classic;flowAnimation=0;fillColor=#f5f5f5;endFill=1;startArrow=none;startFill=0;" parent="1" source="j6RYW2Encp40kcF4Ty5e-41" target="j6RYW2Encp40kcF4Ty5e-63" edge="1">
          <mxGeometry relative="1" as="geometry">
            <Array as="points">
              <mxPoint x="90" y="764" />
              <mxPoint x="90" y="140" />
            </Array>
          </mxGeometry>
        </mxCell>
        <mxCell id="x9_ibyh38mPB4LA863Rb-2" style="edgeStyle=orthogonalEdgeStyle;rounded=0;orthogonalLoop=1;jettySize=auto;html=1;fillColor=#f8cecc;strokeColor=#b85450;flowAnimation=1;" edge="1" parent="1" source="j6RYW2Encp40kcF4Ty5e-6" target="x9_ibyh38mPB4LA863Rb-1">
          <mxGeometry relative="1" as="geometry">
            <Array as="points">
              <mxPoint x="290" y="250" />
              <mxPoint x="290" y="250" />
            </Array>
          </mxGeometry>
        </mxCell>
        <mxCell id="j6RYW2Encp40kcF4Ty5e-70" value="" style="edgeStyle=orthogonalEdgeStyle;rounded=0;orthogonalLoop=1;jettySize=auto;html=1;fillColor=#f5f5f5;strokeColor=#666666;flowAnimation=0;jumpStyle=arc;" parent="1" source="j6RYW2Encp40kcF4Ty5e-61" target="j6RYW2Encp40kcF4Ty5e-5" edge="1">
          <mxGeometry relative="1" as="geometry">
            <mxPoint x="800" y="280" as="sourcePoint" />
            <Array as="points">
              <mxPoint x="540" y="140.00117647058823" />
              <mxPoint x="540" y="260.00117647058823" />
            </Array>
            <mxPoint x="490" y="280" as="targetPoint" />
          </mxGeometry>
        </mxCell>
      </root>
    </mxGraphModel>
  </diagram>
</mxfile>
